<svg width="88" height="16" viewBox="0 0 88 16" fill="none" xmlns="http://www.w3.org/2000/svg">
<path d="M11.6221 10.9229C11.6221 11.9971 11.2396 12.9085 10.4746 13.6572C9.36784 14.7152 7.78092 15.2441 5.71387 15.2441C3.93978 15.2441 2.42611 14.8291 1.17285 13.999C1.17285 14.2757 1.15658 14.4954 1.12402 14.6582C1.04264 14.9186 0.782227 15.0488 0.342773 15.0488V9.87305H1.29492C1.36003 10.7357 1.53906 11.5007 1.83203 12.168C2.5319 13.7467 3.74447 14.5361 5.46973 14.5361C5.92546 14.5361 6.34049 14.471 6.71484 14.3408C7.75651 13.9502 8.27734 13.1689 8.27734 11.9971C8.27734 11.6553 8.2041 11.3216 8.05762 10.9961C7.71582 10.3125 6.84505 9.60449 5.44531 8.87207C3.88281 8.07454 3.00391 7.61068 2.80859 7.48047C1.26237 6.52018 0.489258 5.36458 0.489258 4.01367C0.489258 3.10221 0.806641 2.31283 1.44141 1.64551C2.43424 0.620117 3.91536 0.107422 5.88477 0.107422C7.38216 0.107422 8.80632 0.424805 10.1572 1.05957C10.1572 0.913086 10.1654 0.782878 10.1816 0.668945C10.263 0.359701 10.5316 0.205078 10.9873 0.205078V4.62402H10.0352C10.0189 3.74512 9.80729 2.98828 9.40039 2.35352C8.73307 1.3444 7.7321 0.839844 6.39746 0.839844C6.05566 0.839844 5.73014 0.888672 5.4209 0.986328C4.49316 1.29557 4.0293 1.93034 4.0293 2.89062C4.0293 3.26497 4.11068 3.62305 4.27344 3.96484C4.61523 4.66471 5.46973 5.37272 6.83691 6.08887C8.33431 6.88639 9.1888 7.34212 9.40039 7.45605C10.8815 8.41634 11.6221 9.57194 11.6221 10.9229Z" fill="#A18A68"/>
<path d="M20.4355 15H13.1113V14.3408H15.0645V1.01074H13.1113V0.351562H20.4355V1.01074H18.4824V7.08984H24.6836V1.01074H22.7305V0.351562H30.0547V1.01074H28.1016V14.3408H29.3955C29.7373 14.3734 29.957 14.5931 30.0547 15H22.7305V14.3408H24.6836V7.82227H18.4824V14.3408H19.7764C20.1182 14.3734 20.3379 14.5931 20.4355 15ZM39.21 0.107422C41.0492 0.107422 42.6523 0.603841 44.0195 1.59668C45.9238 2.99642 46.876 5.03906 46.876 7.72461C46.876 9.93815 46.1191 11.7611 44.6055 13.1934C43.1243 14.5605 41.3014 15.2441 39.1367 15.2441C37.2324 15.2441 35.5723 14.6989 34.1562 13.6084C32.3171 12.1761 31.3975 10.1823 31.3975 7.62695C31.3975 5.39714 32.1706 3.57422 33.7168 2.1582C35.2142 0.791016 37.0452 0.107422 39.21 0.107422ZM39.21 14.5361C39.9587 14.5361 40.5853 14.3734 41.0898 14.0479C42.3919 13.2178 43.043 11.0693 43.043 7.60254C43.043 6.1377 42.9209 4.90885 42.6768 3.91602C42.1559 1.84896 40.9759 0.81543 39.1367 0.81543C38.5833 0.81543 38.0869 0.913086 37.6475 1.1084C36.0361 1.79199 35.2305 3.9974 35.2305 7.72461C35.2305 9.67773 35.4339 11.1914 35.8408 12.2656C36.4268 13.7793 37.5498 14.5361 39.21 14.5361ZM54.9814 1.01074H53.5898V7.82227H54.8838C56.6253 7.80599 57.5124 6.6748 57.5449 4.42871C57.5286 2.18262 56.6742 1.04329 54.9814 1.01074ZM56.0312 15H48.2188V14.3408H50.1719V1.01074H48.2188V0.351562H56.373C57.4473 0.351562 58.375 0.538737 59.1562 0.913086C60.5234 1.5804 61.207 2.67904 61.207 4.20898C61.207 4.82747 61.1012 5.389 60.8896 5.89355C60.1735 7.66764 58.4076 8.55469 55.5918 8.55469H53.5898V14.3408H55.3721C55.7139 14.3734 55.9336 14.5931 56.0312 15ZM68.7021 1.01074H67.3105V7.82227H68.6045C70.346 7.80599 71.2331 6.6748 71.2656 4.42871C71.2493 2.18262 70.3949 1.04329 68.7021 1.01074ZM69.752 15H61.9395V14.3408H63.8926V1.01074H61.9395V0.351562H70.0938C71.168 0.351562 72.0957 0.538737 72.877 0.913086C74.2441 1.5804 74.9277 2.67904 74.9277 4.20898C74.9277 4.82747 74.8219 5.389 74.6104 5.89355C73.8942 7.66764 72.1283 8.55469 69.3125 8.55469H67.3105V14.3408H69.0928C69.4346 14.3734 69.6543 14.5931 69.752 15ZM87.9648 5.03906H87.2568L86.7197 3.35449C86.6709 3.20801 86.6139 3.06152 86.5488 2.91504C86.0443 1.64551 85.1247 1.01074 83.79 1.01074H81.0312V7.08984H85.7188V7.82227H81.0312V14.3408H83.79C84.0993 14.3408 84.3923 14.3083 84.6689 14.2432C85.5967 13.999 86.2721 13.2503 86.6953 11.9971L87.2568 10.3125H87.9648L87.8672 15H75.6602V14.3408H77.6133V1.01074H75.6602V0.351562H87.8672L87.9648 5.03906Z" fill="black"/>
</svg>
